# xmcd CD database file generated by Grip 3.0.0
# 
# Track frame offsets:
#       150
#       14640
#       28202
#       41697
#       55300
#       69502
#       90610
#       105067
#       113855
#       126360
#       140087
#       154295
# 
# Disc length: 2701 seconds
# 
# Revision: 4
# Processed by: cddbd v1.4PL0 Copyright (c) Steve Scherf et al.
# Submitted via: Grip 3.0.0
# 
DISCID=a80a8b0c
DTITLE=Various Artist - Swing, Swing, Swing
DYEAR=1999
DGENRE=Swing
TTITLE0=Big Bad Voodoo Daddy - Go Daddy-O
TTITLE1=The Big Six - The West Coast Jive
TTITLE2=Jumpin' Jimes - Swing Shift
TTITLE3=Alien Fashion Show - Detroit Swing City
TTITLE4=Swingerhead - Pick Up The Phone
TTITLE5=Steve Lucky and The Rhumba Bums - Jumptown
TTITLE6=Lavay Smith and Her Red Hot Skillet Lickers - Oo Pappa Do
TTITLE7=Royal Crown Revue - Swingin' All Day
TTITLE8=Indigo Swing - The Indigo Swing
TTITLE9=The Ray Gelato Giants - Chicky-Mo
TTITLE10=Big Sandy And His Fly-Rite Boys - Jumping From 6 to 6
TTITLE11=Big Time Operator - Sing, Sing, Sing
EXTD=
EXTT0=Big Bad Voodoo Daddy
EXTT1=The Big Six
EXTT2=Jumpin' Jimes
EXTT3=Alien Fashion Show
EXTT4=Swingerhead
EXTT5=Steve Lucky and The Rhumba Bums
EXTT6=Lavay Smith and Her Red Hot Skillet Lickers
EXTT7=Royal Crown Revue
EXTT8=Indigo Swing
EXTT9=The Ray Gelato Giants
EXTT10=Big Sandy And His Fly-Rite Boys
EXTT11=Big Time Operator
PLAYORDER=
